# xmcd
#
# Track frame offsets:
# 150
# 11212
# 25415
# 35025
#
# Disc length: 767 seconds
#
# Revision: 0
# Processed by: cddbd v1.5PL3 Copyright (c) Steve Scherf et al.
# Submitted via: Audion 3.0.2 (http://www.panic.com/audion/)
#
DISCID=2f02fd04
DTITLE=Rasmus Nøhr - demo CD
DYEAR=1900
DGENRE=
TTITLE0=Maria Fra Amerika
TTITLE1=Det glade pizzabud
TTITLE2=Hos min lille arkitekt
TTITLE3=På grænsen til intet
EXTD=
EXTT0=
EXTT1=
EXTT2=
EXTT3=
PLAYORDER=
